<mxfile host="app.diagrams.net" agent="Mozilla/5.0 (Windows NT 10.0; Win64; x64) AppleWebKit/537.36 (KHTML, like Gecko) Chrome/127.0.0.0 Safari/537.36" version="24.7.7">
  <diagram name="Page-1" id="kskQoLW5rbOR7b0D2epy">
    <mxGraphModel dx="1050" dy="617" grid="1" gridSize="10" guides="1" tooltips="1" connect="1" arrows="1" fold="1" page="1" pageScale="1" pageWidth="850" pageHeight="1100" math="0" shadow="0">
      <root>
        <mxCell id="0" />
        <mxCell id="1" parent="0" />
        <mxCell id="z3BiRN5NC-T4tWK3tmq7-25" style="rounded=0;orthogonalLoop=1;jettySize=auto;html=1;entryX=0;entryY=0.5;entryDx=0;entryDy=0;" edge="1" parent="1" source="z3BiRN5NC-T4tWK3tmq7-1" target="z3BiRN5NC-T4tWK3tmq7-4">
          <mxGeometry relative="1" as="geometry" />
        </mxCell>
        <mxCell id="z3BiRN5NC-T4tWK3tmq7-33" value="Own, Read, Write" style="edgeLabel;html=1;align=center;verticalAlign=middle;resizable=0;points=[];" vertex="1" connectable="0" parent="z3BiRN5NC-T4tWK3tmq7-25">
          <mxGeometry x="-0.3591" relative="1" as="geometry">
            <mxPoint as="offset" />
          </mxGeometry>
        </mxCell>
        <mxCell id="z3BiRN5NC-T4tWK3tmq7-26" style="rounded=0;orthogonalLoop=1;jettySize=auto;html=1;entryX=0;entryY=0.5;entryDx=0;entryDy=0;exitX=1;exitY=0.5;exitDx=0;exitDy=0;" edge="1" parent="1" source="z3BiRN5NC-T4tWK3tmq7-1" target="z3BiRN5NC-T4tWK3tmq7-7">
          <mxGeometry relative="1" as="geometry" />
        </mxCell>
        <mxCell id="z3BiRN5NC-T4tWK3tmq7-34" value="Own, Read, Write" style="edgeLabel;html=1;align=center;verticalAlign=middle;resizable=0;points=[];" vertex="1" connectable="0" parent="z3BiRN5NC-T4tWK3tmq7-26">
          <mxGeometry x="-0.4065" y="1" relative="1" as="geometry">
            <mxPoint as="offset" />
          </mxGeometry>
        </mxCell>
        <mxCell id="z3BiRN5NC-T4tWK3tmq7-1" value="User A" style="ellipse;whiteSpace=wrap;html=1;aspect=fixed;" vertex="1" parent="1">
          <mxGeometry x="20" y="200" width="80" height="80" as="geometry" />
        </mxCell>
        <mxCell id="z3BiRN5NC-T4tWK3tmq7-21" style="rounded=0;orthogonalLoop=1;jettySize=auto;html=1;entryX=1;entryY=0.5;entryDx=0;entryDy=0;" edge="1" parent="1" source="z3BiRN5NC-T4tWK3tmq7-2" target="z3BiRN5NC-T4tWK3tmq7-4">
          <mxGeometry relative="1" as="geometry" />
        </mxCell>
        <mxCell id="z3BiRN5NC-T4tWK3tmq7-36" value="Read" style="edgeLabel;html=1;align=center;verticalAlign=middle;resizable=0;points=[];" vertex="1" connectable="0" parent="z3BiRN5NC-T4tWK3tmq7-21">
          <mxGeometry x="0.6011" y="1" relative="1" as="geometry">
            <mxPoint as="offset" />
          </mxGeometry>
        </mxCell>
        <mxCell id="z3BiRN5NC-T4tWK3tmq7-22" style="rounded=0;orthogonalLoop=1;jettySize=auto;html=1;entryX=1;entryY=0.5;entryDx=0;entryDy=0;" edge="1" parent="1" source="z3BiRN5NC-T4tWK3tmq7-2" target="z3BiRN5NC-T4tWK3tmq7-6">
          <mxGeometry relative="1" as="geometry" />
        </mxCell>
        <mxCell id="z3BiRN5NC-T4tWK3tmq7-35" value="Own, Read, Write" style="edgeLabel;html=1;align=center;verticalAlign=middle;resizable=0;points=[];" vertex="1" connectable="0" parent="z3BiRN5NC-T4tWK3tmq7-22">
          <mxGeometry x="0.6261" y="2" relative="1" as="geometry">
            <mxPoint x="29" as="offset" />
          </mxGeometry>
        </mxCell>
        <mxCell id="z3BiRN5NC-T4tWK3tmq7-23" style="rounded=0;orthogonalLoop=1;jettySize=auto;html=1;entryX=1;entryY=0.5;entryDx=0;entryDy=0;" edge="1" parent="1" source="z3BiRN5NC-T4tWK3tmq7-2" target="z3BiRN5NC-T4tWK3tmq7-7">
          <mxGeometry relative="1" as="geometry" />
        </mxCell>
        <mxCell id="z3BiRN5NC-T4tWK3tmq7-38" value="Write" style="edgeLabel;html=1;align=center;verticalAlign=middle;resizable=0;points=[];" vertex="1" connectable="0" parent="z3BiRN5NC-T4tWK3tmq7-23">
          <mxGeometry x="0.634" y="2" relative="1" as="geometry">
            <mxPoint as="offset" />
          </mxGeometry>
        </mxCell>
        <mxCell id="z3BiRN5NC-T4tWK3tmq7-24" style="rounded=0;orthogonalLoop=1;jettySize=auto;html=1;entryX=1;entryY=0.5;entryDx=0;entryDy=0;" edge="1" parent="1" source="z3BiRN5NC-T4tWK3tmq7-2" target="z3BiRN5NC-T4tWK3tmq7-5">
          <mxGeometry relative="1" as="geometry" />
        </mxCell>
        <mxCell id="z3BiRN5NC-T4tWK3tmq7-37" value="Read" style="edgeLabel;html=1;align=center;verticalAlign=middle;resizable=0;points=[];" vertex="1" connectable="0" parent="z3BiRN5NC-T4tWK3tmq7-24">
          <mxGeometry x="0.4792" y="3" relative="1" as="geometry">
            <mxPoint as="offset" />
          </mxGeometry>
        </mxCell>
        <mxCell id="z3BiRN5NC-T4tWK3tmq7-2" value="User B" style="ellipse;whiteSpace=wrap;html=1;aspect=fixed;" vertex="1" parent="1">
          <mxGeometry x="650" y="190" width="80" height="80" as="geometry" />
        </mxCell>
        <mxCell id="z3BiRN5NC-T4tWK3tmq7-30" style="rounded=0;orthogonalLoop=1;jettySize=auto;html=1;entryX=0;entryY=1;entryDx=0;entryDy=0;" edge="1" parent="1" source="z3BiRN5NC-T4tWK3tmq7-3" target="z3BiRN5NC-T4tWK3tmq7-4">
          <mxGeometry relative="1" as="geometry" />
        </mxCell>
        <mxCell id="z3BiRN5NC-T4tWK3tmq7-39" value="Read, Write" style="edgeLabel;html=1;align=center;verticalAlign=middle;resizable=0;points=[];" vertex="1" connectable="0" parent="z3BiRN5NC-T4tWK3tmq7-30">
          <mxGeometry x="-0.0585" y="-2" relative="1" as="geometry">
            <mxPoint as="offset" />
          </mxGeometry>
        </mxCell>
        <mxCell id="z3BiRN5NC-T4tWK3tmq7-31" style="rounded=0;orthogonalLoop=1;jettySize=auto;html=1;entryX=0;entryY=0.5;entryDx=0;entryDy=0;" edge="1" parent="1" source="z3BiRN5NC-T4tWK3tmq7-3" target="z3BiRN5NC-T4tWK3tmq7-6">
          <mxGeometry relative="1" as="geometry" />
        </mxCell>
        <mxCell id="z3BiRN5NC-T4tWK3tmq7-40" value="Read" style="edgeLabel;html=1;align=center;verticalAlign=middle;resizable=0;points=[];" vertex="1" connectable="0" parent="z3BiRN5NC-T4tWK3tmq7-31">
          <mxGeometry x="0.3639" relative="1" as="geometry">
            <mxPoint as="offset" />
          </mxGeometry>
        </mxCell>
        <mxCell id="z3BiRN5NC-T4tWK3tmq7-32" style="rounded=0;orthogonalLoop=1;jettySize=auto;html=1;entryX=0;entryY=0.5;entryDx=0;entryDy=0;" edge="1" parent="1" source="z3BiRN5NC-T4tWK3tmq7-3" target="z3BiRN5NC-T4tWK3tmq7-5">
          <mxGeometry relative="1" as="geometry" />
        </mxCell>
        <mxCell id="z3BiRN5NC-T4tWK3tmq7-41" value="Own, Read, Write" style="edgeLabel;html=1;align=center;verticalAlign=middle;resizable=0;points=[];" vertex="1" connectable="0" parent="z3BiRN5NC-T4tWK3tmq7-32">
          <mxGeometry x="0.2663" y="1" relative="1" as="geometry">
            <mxPoint as="offset" />
          </mxGeometry>
        </mxCell>
        <mxCell id="z3BiRN5NC-T4tWK3tmq7-3" value="User C" style="ellipse;whiteSpace=wrap;html=1;aspect=fixed;" vertex="1" parent="1">
          <mxGeometry x="180" y="190" width="80" height="80" as="geometry" />
        </mxCell>
        <mxCell id="z3BiRN5NC-T4tWK3tmq7-4" value="File 1" style="ellipse;whiteSpace=wrap;html=1;aspect=fixed;" vertex="1" parent="1">
          <mxGeometry x="385" y="10" width="80" height="80" as="geometry" />
        </mxCell>
        <mxCell id="z3BiRN5NC-T4tWK3tmq7-5" value="File 4" style="ellipse;whiteSpace=wrap;html=1;aspect=fixed;" vertex="1" parent="1">
          <mxGeometry x="385" y="250" width="80" height="80" as="geometry" />
        </mxCell>
        <mxCell id="z3BiRN5NC-T4tWK3tmq7-6" value="File 2" style="ellipse;whiteSpace=wrap;html=1;aspect=fixed;" vertex="1" parent="1">
          <mxGeometry x="385" y="130" width="80" height="80" as="geometry" />
        </mxCell>
        <mxCell id="z3BiRN5NC-T4tWK3tmq7-7" value="File 3" style="ellipse;whiteSpace=wrap;html=1;aspect=fixed;" vertex="1" parent="1">
          <mxGeometry x="385" y="370" width="80" height="80" as="geometry" />
        </mxCell>
        <mxCell id="z3BiRN5NC-T4tWK3tmq7-42" value="4.1 a&lt;div&gt;Scott Bebington&lt;/div&gt;&lt;div&gt;u21546216&lt;/div&gt;" style="text;html=1;align=left;verticalAlign=middle;whiteSpace=wrap;rounded=0;fontSize=24;" vertex="1" parent="1">
          <mxGeometry x="20" y="20" width="210" height="100" as="geometry" />
        </mxCell>
        <mxCell id="z3BiRN5NC-T4tWK3tmq7-88" style="rounded=0;orthogonalLoop=1;jettySize=auto;html=1;entryX=1;entryY=0;entryDx=0;entryDy=0;" edge="1" parent="1" source="z3BiRN5NC-T4tWK3tmq7-69" target="z3BiRN5NC-T4tWK3tmq7-74">
          <mxGeometry relative="1" as="geometry" />
        </mxCell>
        <mxCell id="z3BiRN5NC-T4tWK3tmq7-105" value="Read, Owner" style="edgeLabel;html=1;align=center;verticalAlign=middle;resizable=0;points=[];" vertex="1" connectable="0" parent="z3BiRN5NC-T4tWK3tmq7-88">
          <mxGeometry x="0.3559" y="-1" relative="1" as="geometry">
            <mxPoint y="-4" as="offset" />
          </mxGeometry>
        </mxCell>
        <mxCell id="z3BiRN5NC-T4tWK3tmq7-90" style="rounded=0;orthogonalLoop=1;jettySize=auto;html=1;entryX=0.5;entryY=0;entryDx=0;entryDy=0;" edge="1" parent="1" source="z3BiRN5NC-T4tWK3tmq7-69" target="z3BiRN5NC-T4tWK3tmq7-73">
          <mxGeometry relative="1" as="geometry" />
        </mxCell>
        <mxCell id="z3BiRN5NC-T4tWK3tmq7-91" value="Wakeup" style="edgeLabel;html=1;align=center;verticalAlign=middle;resizable=0;points=[];" vertex="1" connectable="0" parent="z3BiRN5NC-T4tWK3tmq7-90">
          <mxGeometry x="-0.13" y="-2" relative="1" as="geometry">
            <mxPoint y="24" as="offset" />
          </mxGeometry>
        </mxCell>
        <mxCell id="z3BiRN5NC-T4tWK3tmq7-94" style="rounded=0;orthogonalLoop=1;jettySize=auto;html=1;entryX=0.5;entryY=0;entryDx=0;entryDy=0;" edge="1" parent="1" source="z3BiRN5NC-T4tWK3tmq7-69" target="z3BiRN5NC-T4tWK3tmq7-72">
          <mxGeometry relative="1" as="geometry" />
        </mxCell>
        <mxCell id="z3BiRN5NC-T4tWK3tmq7-95" value="Wakeup" style="edgeLabel;html=1;align=center;verticalAlign=middle;resizable=0;points=[];" vertex="1" connectable="0" parent="z3BiRN5NC-T4tWK3tmq7-94">
          <mxGeometry x="0.1016" y="-1" relative="1" as="geometry">
            <mxPoint x="2" y="12" as="offset" />
          </mxGeometry>
        </mxCell>
        <mxCell id="z3BiRN5NC-T4tWK3tmq7-96" style="rounded=0;orthogonalLoop=1;jettySize=auto;html=1;entryX=0;entryY=0;entryDx=0;entryDy=0;" edge="1" parent="1" source="z3BiRN5NC-T4tWK3tmq7-69" target="z3BiRN5NC-T4tWK3tmq7-71">
          <mxGeometry relative="1" as="geometry" />
        </mxCell>
        <mxCell id="z3BiRN5NC-T4tWK3tmq7-97" value="Seek" style="edgeLabel;html=1;align=center;verticalAlign=middle;resizable=0;points=[];" vertex="1" connectable="0" parent="z3BiRN5NC-T4tWK3tmq7-96">
          <mxGeometry x="-0.031" y="-2" relative="1" as="geometry">
            <mxPoint x="25" y="17" as="offset" />
          </mxGeometry>
        </mxCell>
        <mxCell id="z3BiRN5NC-T4tWK3tmq7-98" style="rounded=0;orthogonalLoop=1;jettySize=auto;html=1;entryX=0;entryY=0;entryDx=0;entryDy=0;" edge="1" parent="1" source="z3BiRN5NC-T4tWK3tmq7-69" target="z3BiRN5NC-T4tWK3tmq7-70">
          <mxGeometry relative="1" as="geometry" />
        </mxCell>
        <mxCell id="z3BiRN5NC-T4tWK3tmq7-99" value="Owner" style="edgeLabel;html=1;align=center;verticalAlign=middle;resizable=0;points=[];" vertex="1" connectable="0" parent="z3BiRN5NC-T4tWK3tmq7-98">
          <mxGeometry x="0.2943" y="-1" relative="1" as="geometry">
            <mxPoint as="offset" />
          </mxGeometry>
        </mxCell>
        <mxCell id="z3BiRN5NC-T4tWK3tmq7-110" style="edgeStyle=orthogonalEdgeStyle;rounded=0;orthogonalLoop=1;jettySize=auto;html=1;entryX=0;entryY=0.5;entryDx=0;entryDy=0;" edge="1" parent="1" source="z3BiRN5NC-T4tWK3tmq7-69" target="z3BiRN5NC-T4tWK3tmq7-77">
          <mxGeometry relative="1" as="geometry">
            <Array as="points">
              <mxPoint x="30" y="650" />
              <mxPoint x="30" y="980" />
            </Array>
          </mxGeometry>
        </mxCell>
        <mxCell id="z3BiRN5NC-T4tWK3tmq7-111" value="Owner" style="edgeLabel;html=1;align=center;verticalAlign=middle;resizable=0;points=[];" vertex="1" connectable="0" parent="z3BiRN5NC-T4tWK3tmq7-110">
          <mxGeometry x="0.8543" y="-1" relative="1" as="geometry">
            <mxPoint as="offset" />
          </mxGeometry>
        </mxCell>
        <mxCell id="z3BiRN5NC-T4tWK3tmq7-112" style="edgeStyle=orthogonalEdgeStyle;rounded=0;orthogonalLoop=1;jettySize=auto;html=1;entryX=1;entryY=0.5;entryDx=0;entryDy=0;" edge="1" parent="1" source="z3BiRN5NC-T4tWK3tmq7-69" target="z3BiRN5NC-T4tWK3tmq7-76">
          <mxGeometry relative="1" as="geometry">
            <Array as="points">
              <mxPoint x="830" y="650" />
              <mxPoint x="830" y="980" />
            </Array>
          </mxGeometry>
        </mxCell>
        <mxCell id="z3BiRN5NC-T4tWK3tmq7-113" value="Owner, Control" style="edgeLabel;html=1;align=center;verticalAlign=middle;resizable=0;points=[];" vertex="1" connectable="0" parent="z3BiRN5NC-T4tWK3tmq7-112">
          <mxGeometry x="0.8753" y="-1" relative="1" as="geometry">
            <mxPoint as="offset" />
          </mxGeometry>
        </mxCell>
        <mxCell id="z3BiRN5NC-T4tWK3tmq7-69" value="S1" style="ellipse;whiteSpace=wrap;html=1;aspect=fixed;" vertex="1" parent="1">
          <mxGeometry x="385" y="610" width="80" height="80" as="geometry" />
        </mxCell>
        <mxCell id="z3BiRN5NC-T4tWK3tmq7-70" value="D2" style="ellipse;whiteSpace=wrap;html=1;aspect=fixed;" vertex="1" parent="1">
          <mxGeometry x="730" y="780" width="80" height="80" as="geometry" />
        </mxCell>
        <mxCell id="z3BiRN5NC-T4tWK3tmq7-71" value="D1" style="ellipse;whiteSpace=wrap;html=1;aspect=fixed;" vertex="1" parent="1">
          <mxGeometry x="590" y="780" width="80" height="80" as="geometry" />
        </mxCell>
        <mxCell id="z3BiRN5NC-T4tWK3tmq7-72" value="P2" style="ellipse;whiteSpace=wrap;html=1;aspect=fixed;" vertex="1" parent="1">
          <mxGeometry x="450" y="780" width="80" height="80" as="geometry" />
        </mxCell>
        <mxCell id="z3BiRN5NC-T4tWK3tmq7-73" value="P1" style="ellipse;whiteSpace=wrap;html=1;aspect=fixed;" vertex="1" parent="1">
          <mxGeometry x="320" y="780" width="80" height="80" as="geometry" />
        </mxCell>
        <mxCell id="z3BiRN5NC-T4tWK3tmq7-118" style="rounded=0;orthogonalLoop=1;jettySize=auto;html=1;entryX=1;entryY=1;entryDx=0;entryDy=0;" edge="1" parent="1" source="z3BiRN5NC-T4tWK3tmq7-76" target="z3BiRN5NC-T4tWK3tmq7-74">
          <mxGeometry relative="1" as="geometry" />
        </mxCell>
        <mxCell id="z3BiRN5NC-T4tWK3tmq7-122" value="Write" style="edgeLabel;html=1;align=center;verticalAlign=middle;resizable=0;points=[];" vertex="1" connectable="0" parent="z3BiRN5NC-T4tWK3tmq7-118">
          <mxGeometry x="0.5113" y="1" relative="1" as="geometry">
            <mxPoint x="-1" as="offset" />
          </mxGeometry>
        </mxCell>
        <mxCell id="z3BiRN5NC-T4tWK3tmq7-119" style="rounded=0;orthogonalLoop=1;jettySize=auto;html=1;entryX=0.5;entryY=1;entryDx=0;entryDy=0;" edge="1" parent="1" source="z3BiRN5NC-T4tWK3tmq7-76" target="z3BiRN5NC-T4tWK3tmq7-73">
          <mxGeometry relative="1" as="geometry" />
        </mxCell>
        <mxCell id="z3BiRN5NC-T4tWK3tmq7-123" value="Stop" style="edgeLabel;html=1;align=center;verticalAlign=middle;resizable=0;points=[];" vertex="1" connectable="0" parent="z3BiRN5NC-T4tWK3tmq7-119">
          <mxGeometry x="0.5695" relative="1" as="geometry">
            <mxPoint as="offset" />
          </mxGeometry>
        </mxCell>
        <mxCell id="z3BiRN5NC-T4tWK3tmq7-76" value="S3" style="ellipse;whiteSpace=wrap;html=1;aspect=fixed;" vertex="1" parent="1">
          <mxGeometry x="550" y="940" width="80" height="80" as="geometry" />
        </mxCell>
        <mxCell id="z3BiRN5NC-T4tWK3tmq7-114" style="rounded=0;orthogonalLoop=1;jettySize=auto;html=1;entryX=0.5;entryY=1;entryDx=0;entryDy=0;" edge="1" parent="1" source="z3BiRN5NC-T4tWK3tmq7-77" target="z3BiRN5NC-T4tWK3tmq7-75">
          <mxGeometry relative="1" as="geometry" />
        </mxCell>
        <mxCell id="z3BiRN5NC-T4tWK3tmq7-120" value="Write *" style="edgeLabel;html=1;align=center;verticalAlign=middle;resizable=0;points=[];" vertex="1" connectable="0" parent="z3BiRN5NC-T4tWK3tmq7-114">
          <mxGeometry x="0.508" y="2" relative="1" as="geometry">
            <mxPoint as="offset" />
          </mxGeometry>
        </mxCell>
        <mxCell id="z3BiRN5NC-T4tWK3tmq7-115" style="rounded=0;orthogonalLoop=1;jettySize=auto;html=1;entryX=0.5;entryY=1;entryDx=0;entryDy=0;" edge="1" parent="1" source="z3BiRN5NC-T4tWK3tmq7-77" target="z3BiRN5NC-T4tWK3tmq7-74">
          <mxGeometry relative="1" as="geometry" />
        </mxCell>
        <mxCell id="z3BiRN5NC-T4tWK3tmq7-121" value="Execute" style="edgeLabel;html=1;align=center;verticalAlign=middle;resizable=0;points=[];" vertex="1" connectable="0" parent="z3BiRN5NC-T4tWK3tmq7-115">
          <mxGeometry x="0.453" y="1" relative="1" as="geometry">
            <mxPoint as="offset" />
          </mxGeometry>
        </mxCell>
        <mxCell id="z3BiRN5NC-T4tWK3tmq7-116" style="rounded=0;orthogonalLoop=1;jettySize=auto;html=1;entryX=0.5;entryY=1;entryDx=0;entryDy=0;" edge="1" parent="1" source="z3BiRN5NC-T4tWK3tmq7-77" target="z3BiRN5NC-T4tWK3tmq7-71">
          <mxGeometry relative="1" as="geometry" />
        </mxCell>
        <mxCell id="z3BiRN5NC-T4tWK3tmq7-124" value="Owner" style="edgeLabel;html=1;align=center;verticalAlign=middle;resizable=0;points=[];" vertex="1" connectable="0" parent="z3BiRN5NC-T4tWK3tmq7-116">
          <mxGeometry x="0.6845" relative="1" as="geometry">
            <mxPoint as="offset" />
          </mxGeometry>
        </mxCell>
        <mxCell id="z3BiRN5NC-T4tWK3tmq7-117" style="rounded=0;orthogonalLoop=1;jettySize=auto;html=1;entryX=0;entryY=1;entryDx=0;entryDy=0;" edge="1" parent="1" source="z3BiRN5NC-T4tWK3tmq7-77" target="z3BiRN5NC-T4tWK3tmq7-70">
          <mxGeometry relative="1" as="geometry" />
        </mxCell>
        <mxCell id="z3BiRN5NC-T4tWK3tmq7-125" value="Seek *" style="edgeLabel;html=1;align=center;verticalAlign=middle;resizable=0;points=[];" vertex="1" connectable="0" parent="z3BiRN5NC-T4tWK3tmq7-117">
          <mxGeometry x="0.5956" y="-2" relative="1" as="geometry">
            <mxPoint as="offset" />
          </mxGeometry>
        </mxCell>
        <mxCell id="z3BiRN5NC-T4tWK3tmq7-77" value="S2" style="ellipse;whiteSpace=wrap;html=1;aspect=fixed;" vertex="1" parent="1">
          <mxGeometry x="240" y="940" width="80" height="80" as="geometry" />
        </mxCell>
        <mxCell id="z3BiRN5NC-T4tWK3tmq7-78" style="edgeStyle=orthogonalEdgeStyle;rounded=0;orthogonalLoop=1;jettySize=auto;html=1;entryX=0;entryY=0;entryDx=0;entryDy=0;" edge="1" parent="1" source="z3BiRN5NC-T4tWK3tmq7-69" target="z3BiRN5NC-T4tWK3tmq7-69">
          <mxGeometry relative="1" as="geometry">
            <Array as="points">
              <mxPoint x="450" y="580" />
              <mxPoint x="397" y="580" />
            </Array>
          </mxGeometry>
        </mxCell>
        <mxCell id="z3BiRN5NC-T4tWK3tmq7-79" value="Control" style="edgeLabel;html=1;align=center;verticalAlign=middle;resizable=0;points=[];" vertex="1" connectable="0" parent="z3BiRN5NC-T4tWK3tmq7-78">
          <mxGeometry x="0.025" y="-1" relative="1" as="geometry">
            <mxPoint as="offset" />
          </mxGeometry>
        </mxCell>
        <mxCell id="z3BiRN5NC-T4tWK3tmq7-100" value="" style="rounded=0;orthogonalLoop=1;jettySize=auto;html=1;entryX=1;entryY=0;entryDx=0;entryDy=0;" edge="1" parent="1" source="z3BiRN5NC-T4tWK3tmq7-69" target="z3BiRN5NC-T4tWK3tmq7-75">
          <mxGeometry relative="1" as="geometry">
            <mxPoint x="150" y="821" as="sourcePoint" />
            <mxPoint x="680" y="830" as="targetPoint" />
          </mxGeometry>
        </mxCell>
        <mxCell id="z3BiRN5NC-T4tWK3tmq7-104" value="Read *" style="edgeLabel;html=1;align=center;verticalAlign=middle;resizable=0;points=[];" vertex="1" connectable="0" parent="z3BiRN5NC-T4tWK3tmq7-100">
          <mxGeometry x="0.245" relative="1" as="geometry">
            <mxPoint x="-6" y="5" as="offset" />
          </mxGeometry>
        </mxCell>
        <mxCell id="z3BiRN5NC-T4tWK3tmq7-75" value="F1" style="ellipse;whiteSpace=wrap;html=1;aspect=fixed;" vertex="1" parent="1">
          <mxGeometry x="60" y="780" width="80" height="80" as="geometry" />
        </mxCell>
        <mxCell id="z3BiRN5NC-T4tWK3tmq7-74" value="F2" style="ellipse;whiteSpace=wrap;html=1;aspect=fixed;" vertex="1" parent="1">
          <mxGeometry x="190" y="780" width="80" height="80" as="geometry" />
        </mxCell>
        <mxCell id="z3BiRN5NC-T4tWK3tmq7-106" style="edgeStyle=orthogonalEdgeStyle;rounded=0;orthogonalLoop=1;jettySize=auto;html=1;entryX=0;entryY=1;entryDx=0;entryDy=0;" edge="1" parent="1" source="z3BiRN5NC-T4tWK3tmq7-77" target="z3BiRN5NC-T4tWK3tmq7-77">
          <mxGeometry relative="1" as="geometry">
            <Array as="points">
              <mxPoint x="310" y="1040" />
              <mxPoint x="252" y="1040" />
            </Array>
          </mxGeometry>
        </mxCell>
        <mxCell id="z3BiRN5NC-T4tWK3tmq7-107" value="Control" style="edgeLabel;html=1;align=center;verticalAlign=middle;resizable=0;points=[];" vertex="1" connectable="0" parent="z3BiRN5NC-T4tWK3tmq7-106">
          <mxGeometry x="-0.0225" y="2" relative="1" as="geometry">
            <mxPoint as="offset" />
          </mxGeometry>
        </mxCell>
        <mxCell id="z3BiRN5NC-T4tWK3tmq7-108" style="edgeStyle=orthogonalEdgeStyle;rounded=0;orthogonalLoop=1;jettySize=auto;html=1;entryX=0;entryY=1;entryDx=0;entryDy=0;" edge="1" parent="1" source="z3BiRN5NC-T4tWK3tmq7-76" target="z3BiRN5NC-T4tWK3tmq7-76">
          <mxGeometry relative="1" as="geometry">
            <Array as="points">
              <mxPoint x="620" y="1060" />
              <mxPoint x="550" y="1060" />
              <mxPoint x="550" y="1008" />
            </Array>
          </mxGeometry>
        </mxCell>
        <mxCell id="z3BiRN5NC-T4tWK3tmq7-109" value="Control" style="edgeLabel;html=1;align=center;verticalAlign=middle;resizable=0;points=[];" vertex="1" connectable="0" parent="z3BiRN5NC-T4tWK3tmq7-108">
          <mxGeometry x="-0.0935" y="2" relative="1" as="geometry">
            <mxPoint as="offset" />
          </mxGeometry>
        </mxCell>
        <mxCell id="z3BiRN5NC-T4tWK3tmq7-126" value="4.1 b&lt;div&gt;Scott Bebington&lt;/div&gt;&lt;div&gt;u21546216&lt;/div&gt;" style="text;html=1;align=left;verticalAlign=middle;whiteSpace=wrap;rounded=0;fontSize=24;" vertex="1" parent="1">
          <mxGeometry x="30" y="540" width="210" height="100" as="geometry" />
        </mxCell>
      </root>
    </mxGraphModel>
  </diagram>
</mxfile>
